<svg xmlns="http://www.w3.org/2000/svg" width="64" height="64" viewBox="0 0 64 64">
  <rect width="64" height="64" rx="16" fill="#174f50"/>
  <path d="M13 19c7-2 13 0 19 4 6-4 12-6 19-4v27c-7-2-13 0-19 4-6-4-12-6-19-4Z" fill="none" stroke="#fff" stroke-width="2.5" stroke-linejoin="round"/>
  <path d="M32 23v27M19 27c3 0 5 1 7 2m-7 5c3 0 5 1 7 2m12-7 7-2m-7 9 7-2" stroke="#fff" stroke-width="2" stroke-linecap="round"/>
  <path d="m27 13 5-5 5 5" fill="none" stroke="#d9b878" stroke-width="2.5" stroke-linecap="round" stroke-linejoin="round"/>
</svg>
